<?xml version="1.0" encoding="UTF-8" standalone="no"?>
<!-- Created with Inkscape (http://www.inkscape.org/) -->

<svg
   xmlns:dc="http://purl.org/dc/elements/1.1/"
   xmlns:cc="http://creativecommons.org/ns#"
   xmlns:rdf="http://www.w3.org/1999/02/22-rdf-syntax-ns#"
   xmlns:svg="http://www.w3.org/2000/svg"
   xmlns="http://www.w3.org/2000/svg"
   xmlns:sodipodi="http://sodipodi.sourceforge.net/DTD/sodipodi-0.dtd"
   xmlns:inkscape="http://www.inkscape.org/namespaces/inkscape"
   id="svg16410"
   sodipodi:docname="garbagetruck.svg"
   inkscape:export-filename="/home/algot/Documents/runeman.org/clipart/loads-of-love.png"
   viewBox="0 0 427.35 238.03"
   inkscape:export-xdpi="21.059786"
   version="1.1"
   inkscape:export-ydpi="21.059786"
   inkscape:version="0.92.1 r15371"
   width="455.84"
   height="253.89867">
  <defs
     id="defs4530" />
  <sodipodi:namedview
     id="base"
     bordercolor="#666666"
     inkscape:pageshadow="2"
     inkscape:window-y="-8"
     fit-margin-left="0"
     pagecolor="#ffffff"
     fit-margin-top="0"
     inkscape:window-maximized="1"
     inkscape:zoom="1.0076756"
     inkscape:window-x="-8"
     inkscape:window-height="706"
     showgrid="false"
     borderopacity="1.0"
     inkscape:current-layer="layer1"
     inkscape:cx="292.29093"
     inkscape:cy="153.0165"
     fit-margin-right="0"
     fit-margin-bottom="0"
     inkscape:window-width="1366"
     inkscape:pageopacity="0.0"
     inkscape:document-units="px"
     inkscape:snap-global="false">
    <inkscape:grid
       id="grid16418"
       originy="-1267.7244"
       enabled="true"
       originx="-107.49999"
       visible="true"
       snapvisiblegridlinesonly="true"
       type="xygrid"
       empspacing="5"
       spacingx="1"
       spacingy="1" />
  </sodipodi:namedview>
  <g
     id="layer1"
     inkscape:label="Layer 1"
     inkscape:groupmode="layer"
     transform="translate(-107.5,-360.98)">
    <g
       id="g4597"
       transform="translate(-1.875,-7.5)">
      <path
         transform="translate(107.5,361.02)"
         d="m 344,201.99 -153,-1 -3,-4 h -6 v 3 l 6,1 v 6 l -5,2 v 3 l 8,-1 2,-6 152,2 z"
         inkscape:connector-curvature="0"
         style="fill:#4d4d4d;stroke:#000000;stroke-width:1px"
         id="path16492" />
      <path
         transform="translate(107.5,361.02)"
         inkscape:connector-curvature="0"
         sodipodi:nodetypes="cccccccc"
         d="m 186.41,200.87 -10.35,-0.3 -4.06,1.65 -124,-0.23 v 6 h 124 l 13.899,-0.58579 z"
         style="fill:#4d4d4d;stroke:#000000;stroke-width:1px"
         id="path16494" />
      <path
         d="m 432,538.36 19,26 h 53 l 6,-44 -81,3 z"
         inkscape:connector-curvature="0"
         style="fill:#000000;stroke:#000000;stroke-width:1px"
         id="path16490" />
      <path
         d="m 150,542.36 h 280 v 10 H 150 Z"
         inkscape:connector-curvature="0"
         style="fill:#000000;stroke:#000000;stroke-width:1px"
         id="path16442" />
      <path
         inkscape:connector-curvature="0"
         id="path4534"
         d="m 115.10746,491.84409 c -0.011,-2.09469 0.0164,-4.19271 0,-6.28443 -0.61711,-0.63349 -0.5626,-3.93156 0.33076,-2.64607 0.32199,1.0566 0.53226,-0.34669 0.82688,0.8269 0.48492,1.16238 1.46144,0.0564 1.15767,-0.96994 0.003,-1.05354 -0.003,-2.11948 0,-3.16455 1.39345,-0.57009 2.62392,-1.59185 4.15092,-1.18045 0.80379,0.45338 1.12744,1.36941 -0.003,0.38862 -0.83334,-0.82544 -0.92609,-2.17906 -0.84064,-3.50803 0.0347,-0.83638 1.09292,-0.65741 1.96447,-0.66152 0.77047,0.009 1.60936,-0.0127 2.3354,0 -1.16459,-0.53576 0.5492,-2.12064 0.53623,-3.10618 0.74327,-1.13847 1.10254,-1.7276 1.11756,-2.89667 -0.18221,-0.99689 0.0886,-1.53151 1.15991,-1.27386 0.70906,-0.011 1.48244,0.0148 2.14768,0 -0.57613,-1.22096 -0.57449,-3.40733 0,-4.63062 1.15444,0.17365 3.70627,-0.62126 3.63835,0.99228 -0.25562,-1.26218 0.30849,-0.32181 0.89407,-1.43486 1.87281,-0.70151 3.09766,-2.61461 5.05493,-3.3213 1.12232,-0.74416 3.52654,-2.33785 3.97377,-2.28364 0.003,1.0221 -0.004,2.05712 0,3.07069 1.50734,0.73269 1.49975,3.23184 2.63608,4.63735 0.98933,1.06504 1.88173,2.95565 3.55448,2.9701 1.21912,0.0576 1.88593,1.51288 2.40917,1.98456 0.52978,0.92574 0.33086,2.02884 1.19049,2.80019 0.30922,1.40724 -0.0828,2.90128 0.47722,4.1441 -0.0679,2.39831 0.0717,4.81663 -0.0795,7.1997 -0.53444,1.64031 0.0149,3.46128 -0.92673,5.04003 0.32638,0.88901 -0.84738,3.6861 -0.3765,3.48871 -0.16381,-1.17049 0.0894,2.26347 -1.27729,1.48326 -1.33166,-0.32838 -2.68884,-0.94608 -4.2306,-0.6721 -2.24337,0.10914 -3.75261,2.31148 -5.68994,3.31047 -1.59597,1.0372 -2.35599,2.93749 -3.97134,2.97395 -1.21278,0 -2.42557,0 -3.63835,0 -1.61072,-0.52346 -2.60699,-0.53128 -4.46525,-0.82689 -1.50927,-0.19671 -2.79722,-0.85965 -4.13448,-1.48842 -1.13571,-0.57394 -2.42918,-0.25228 -3.63835,-0.33076 0.37845,-1.13142 -1.67559,-0.49789 -0.99228,-1.32304 -1.05439,-0.50731 -1.78677,-0.75075 -2.67532,-1.14556 -0.73743,-0.56724 -1.80608,-0.77448 -2.61682,-2.16202 z"
         style="fill:#c47c81;fill-opacity:1;stroke:#000000;stroke-width:0.88582677;stroke-linecap:butt;stroke-linejoin:miter;stroke-miterlimit:4;stroke-dasharray:none;stroke-opacity:1" />
      <path
         id="path4532"
         style="fill:#cccccc;stroke:#000000;stroke-width:1.00386357px"
         inkscape:connector-curvature="0"
         d="m 118.86269,520.67782 168.74536,-2.65435 0.66152,-32.2685 -176.68358,1.33131 z"
         sodipodi:nodetypes="ccccc" />
      <path
         sodipodi:nodetypes="ccccccc"
         d="m 142.29463,419.4983 v 23.61835 L 119.93,522.32 l 244.14639,1.32304 0.41384,-75.17259 -21.23715,-33.38986 z"
         inkscape:connector-curvature="0"
         style="fill:#333333;stroke:#000000;stroke-width:1.08990002px"
         id="path16420" />
      <path
         sodipodi:nodetypes="ccccc"
         d="M 137.21815,421.81083 346.96,420.485 v -19.948 l -209.74185,1.32583 z"
         inkscape:connector-curvature="0"
         style="fill:#cccccc;stroke:#000000;stroke-width:1.09150004px"
         id="path16422" />
      <path
         sodipodi:nodetypes="ccccc"
         d="m 120,521.36 v 10 l 239.51478,0.33076 v -10 z"
         inkscape:connector-curvature="0"
         style="fill:#808080;stroke:#000000;stroke-width:1px"
         id="path16424" />
      <path
         d="m 359,427.36 c -2.5712,4.3012 1,15 1,15 v 110 h 80 c 0,0 1.4488,-9.8366 10,-16 13.521,-9.7452 35.822,-8.7622 50,0 12.681,7.8371 20,26 20,26 v -90 l -50,-10 c 0,0 8.6885,-35.873 -4,-39 -26.643,-6.5666 -96,-1 -96,-1 0,0 -8.9334,1.5429 -11,5 z"
         inkscape:connector-curvature="0"
         style="fill:#2c9043;fill-opacity:1;stroke:#000000;stroke-width:1px"
         sodipodi:nodetypes="scccsscccscs"
         id="path16426" />
      <path
         d="m 380,432.36 v 40 h 80 v -40 z"
         inkscape:connector-curvature="0"
         style="fill:#e6e6e6;stroke:#000000;stroke-width:1px"
         id="path16428" />
      <circle
         r="25"
         cy="567.36218"
         cx="165"
         transform="matrix(1.3,0,0,1.3,262,-171.71)"
         style="fill:#000000;stroke:#ffffff"
         id="path16438" />
      <circle
         r="25"
         cy="567.36218"
         cx="165"
         transform="matrix(0.74,0,0,0.74,354.4,146.01)"
         style="fill:#808080"
         id="path16440" />
      <path
         sodipodi:nodetypes="ccccc"
         d="m 150,532.36 209.51478,0.33076 v 10 L 150,542.36 Z"
         inkscape:connector-curvature="0"
         style="fill:#1a1a1a;stroke:#000000;stroke-width:1px"
         id="path16444" />
      <path
         d="m 360,552.36 v 30 h 60 v -20 h 20 v -10 z"
         inkscape:connector-curvature="0"
         style="fill:#999999;stroke:#000000;stroke-width:1px"
         id="path16446" />
      <path
         d="m 360,572.36 h 60 v 10 h -60 z"
         inkscape:connector-curvature="0"
         style="fill:#666666;stroke:#000000;stroke-width:1px"
         id="path16448" />
      <path
         sodipodi:nodetypes="ccccc"
         d="m 520,471.36 8,4 v 17 l -7.66152,5 z"
         inkscape:connector-curvature="0"
         style="fill:#ffff00;stroke:#000000;stroke-width:1px"
         id="path16482" />
      <path
         d="m 508.1,537.44 c 0,0 22.977,-6.5798 24.232,-0.99577 2.7703,12.323 2.3716,31.204 0,40.827 -1.1287,4.5796 -19.956,0 -19.956,0 z"
         inkscape:connector-curvature="0"
         style="fill:#cccccc;stroke:#000000;stroke-width:1.19140005px"
         sodipodi:nodetypes="csscc"
         id="path16484" />
      <circle
         r="25"
         cy="567.36218"
         cx="165"
         transform="matrix(1.3,0,0,1.3,8,-171.71)"
         style="fill:#000000;stroke:#ffffff"
         id="path16434" />
      <circle
         r="25"
         cy="567.36218"
         cx="165"
         transform="matrix(0.74,0,0,0.74,100.4,146.01)"
         style="fill:#808080"
         id="path16436" />
      <circle
         r="25"
         cy="567.36218"
         cx="165"
         transform="matrix(1.3,0,0,1.3,-62,-171.71)"
         style="fill:#000000;stroke:#ffffff"
         id="path16432" />
      <circle
         r="25"
         cy="567.36218"
         cx="165"
         transform="matrix(0.74,0,0,0.74,30.4,146.01)"
         style="fill:#808080"
         id="path16430" />
      <g
         transform="matrix(0.57447,0,0,0.57447,593.13,104.87)"
         id="g16537">
        <circle
           r="26.162951"
           cy="111.41571"
           cx="-337.28995"
           transform="matrix(1.0498,0,0,0.99572,47.921,478.88)"
           style="fill:#000000"
           id="path16515" />
        <path
           inkscape:connector-curvature="0"
           style="fill:#ffff00;stroke:#000000;stroke-width:2.26364064;stroke-linecap:round;stroke-linejoin:bevel;stroke-miterlimit:4;stroke-dasharray:none"
           sodipodi:nodetypes="cccssc"
           d="m -335.13,586.27 69.751,-1.4126 -15.567,-5.6504 c 0,0 -1.605,-11.203 -6.0204,-14.126 -10.667,-7.0623 -28.262,-8.1962 -39.132,-1.4126 -7.1389,4.4551 -9.0306,22.602 -9.0306,22.602 z"
           id="path16517" />
        <path
           inkscape:connector-curvature="0"
           style="fill:#000000;stroke:#000000;stroke-width:1px"
           sodipodi:nodetypes="csscc"
           d="m -281.31,640.02 c 0,0 -10.318,-20.024 -17.071,-25.456 -6.3408,-5.1007 -16.649,-7.6439 -24.042,-4.2426 -10.944,5.0349 -18.385,31.113 -18.385,31.113 z"
           id="path16519" />
      </g>
      <g
         transform="translate(-6.1160986,-5.2423702)"
         id="text4539"
         style="font-style:normal;font-variant:normal;font-weight:normal;font-stretch:normal;font-size:37.5px;line-height:1.25;font-family:'OCR A Extended';-inkscape-font-specification:'OCR A Extended';letter-spacing:0px;word-spacing:0px;fill:#cccccc;fill-opacity:1;stroke:none;stroke-width:0.9375"
         aria-label="GARBAGE">
        <path
           inkscape:connector-curvature="0"
           id="path4541"
           d="m 188.02281,486.25208 c -6.98766,4.04933 -18.24525,2.9268 -21.27228,-5.60303 -2.99675,-7.50214 1.17869,-17.34624 9.47715,-18.91666 3.28533,-0.22288 11.11019,-1.73728 10.95285,2.90694 1.02157,5.40157 -6.08096,-1.92484 -9.19876,0.63687 -9.129,1.21438 -10.42525,16.36535 -1.72063,19.09304 3.92174,1.28466 8.88311,0.071 7.42207,-4.69635 0.97349,-3.0548 -2.03057,-2.13203 -4.01571,-2.22819 -2.27083,1.14277 -2.12189,-4.13145 -0.51014,-3.66211 2.95515,0 5.9103,0 8.86545,0 0,4.1565 0,8.31299 0,12.46949 z"
           style="font-style:normal;font-variant:normal;font-weight:600;font-stretch:normal;font-family:'Segoe UI';-inkscape-font-specification:'Segoe UI Semi-Bold';fill:#cccccc;stroke-width:0.9375" />
        <path
           inkscape:connector-curvature="0"
           id="path4543"
           d="m 215.2506,488.04651 c -1.70196,-0.47688 -4.90356,1.16679 -5.22511,-1.26207 -0.83937,-1.68103 -1.03351,-4.27443 -2.25065,-5.42128 -3.33084,0 -6.66167,0 -9.99251,0 -0.75683,2.22778 -1.51367,4.45557 -2.2705,6.68335 -1.34837,-0.47476 -5.74071,1.161 -4.29132,-1.25356 3.12111,-8.33459 6.24223,-16.66918 9.36334,-25.00377 1.75645,0.46821 4.96179,-1.14785 5.37358,1.2547 3.09772,8.33421 6.19545,16.66842 9.29317,25.00263 z m -8.29468,-10.2356 c -1.32578,-4.03535 -2.99153,-8.10799 -4.0649,-12.12158 -0.99769,4.1302 -2.68088,8.07241 -3.97339,12.12158 2.67943,0 5.35886,0 8.03829,0 z"
           style="font-style:normal;font-variant:normal;font-weight:600;font-stretch:normal;font-family:'Segoe UI';-inkscape-font-specification:'Segoe UI Semi-Bold';fill:#cccccc;stroke-width:0.9375" />
        <path
           inkscape:connector-curvature="0"
           id="path4545"
           d="m 239.16417,488.04651 c -1.77728,-0.44746 -4.61749,0.97657 -5.60453,-0.86224 -2.30168,-3.2173 -3.5082,-7.60637 -7.10299,-9.59308 -3.26425,-1.3777 -3.66006,0.83734 -3.24097,3.47965 0,2.32522 0,4.65045 0,6.97567 -1.86195,-0.25387 -5.26798,1.03635 -4.3396,-2.00786 0,-8.08315 0,-16.16631 0,-24.24947 4.92035,0.36412 10.39382,-1.10359 14.7583,1.77613 5.89857,3.93416 -0.19938,11.94317 -2.7008,12.9684 3.58902,3.10949 5.54731,7.6597 8.23059,11.5128 z m -15.94849,-22.72339 c 0,2.84424 0,5.68847 0,8.53271 3.35679,0.23858 8.43841,0.0931 8.27637,-4.5227 0.0808,-4.70525 -5.09211,-3.97564 -8.27637,-4.01001 z"
           style="font-style:normal;font-variant:normal;font-weight:600;font-stretch:normal;font-family:'Segoe UI';-inkscape-font-specification:'Segoe UI Semi-Bold';fill:#cccccc;stroke-width:0.9375" />
        <path
           inkscape:connector-curvature="0"
           id="path4547"
           d="m 242.24034,488.04651 c 0,-8.75244 0,-17.50489 0,-26.25733 4.78348,0.34774 10.0797,-1.04624 14.35547,1.66626 4.19804,2.84614 1.95368,9.62005 -2.52686,10.63839 7.4022,0.18562 7.78493,11.3573 1.10893,13.13725 -4.12067,1.39692 -8.65367,0.60582 -12.93754,0.81543 z m 4.3396,-22.76001 c 0,2.49023 0,4.98047 0,7.4707 3.56485,0.54014 9.1275,-0.80384 7.3906,-5.57556 -1.39712,-2.62352 -4.94852,-1.72288 -7.3906,-1.89514 z m 0,10.96802 c 0,2.77099 0,5.54199 0,8.31298 3.12348,-0.0637 7.81985,0.71612 8.72383,-3.2936 1.00071,-5.45192 -5.11722,-5.0749 -8.72383,-5.01938 z"
           style="font-style:normal;font-variant:normal;font-weight:600;font-stretch:normal;font-family:'Segoe UI';-inkscape-font-specification:'Segoe UI Semi-Bold';fill:#cccccc;stroke-width:0.9375" />
        <path
           inkscape:connector-curvature="0"
           id="path4549"
           d="m 286.442,488.04651 c -1.70196,-0.47688 -4.90356,1.16679 -5.2251,-1.26207 -0.83937,-1.68103 -1.03351,-4.27443 -2.25065,-5.42128 -3.33084,0 -6.66167,0 -9.99251,0 -0.75684,2.22778 -1.51367,4.45557 -2.27051,6.68335 -1.34836,-0.47476 -5.74071,1.161 -4.29131,-1.25356 3.12111,-8.33459 6.24222,-16.66918 9.36333,-25.00377 1.75645,0.46821 4.9618,-1.14785 5.37359,1.2547 3.09772,8.33421 6.19544,16.66842 9.29316,25.00263 z m -8.29468,-10.2356 c -1.32578,-4.03535 -2.99153,-8.10799 -4.0649,-12.12158 -0.99769,4.1302 -2.68089,8.07241 -3.97339,12.12158 2.67943,0 5.35886,0 8.03829,0 z"
           style="font-style:normal;font-variant:normal;font-weight:600;font-stretch:normal;font-family:'Segoe UI';-inkscape-font-specification:'Segoe UI Semi-Bold';fill:#cccccc;stroke-width:0.9375" />
        <path
           inkscape:connector-curvature="0"
           id="path4551"
           d="m 310.55699,486.25208 c -6.98766,4.04933 -18.24525,2.92681 -21.27228,-5.60303 -2.99675,-7.50214 1.17869,-17.34624 9.47715,-18.91666 3.28533,-0.22288 11.11019,-1.73728 10.95285,2.90694 1.02157,5.40157 -6.08096,-1.92484 -9.19876,0.63687 -9.129,1.21438 -10.42526,16.36536 -1.72063,19.09304 3.92173,1.28466 8.88311,0.071 7.42207,-4.69635 0.97349,-3.0548 -2.03057,-2.13203 -4.01571,-2.22819 -2.27083,1.14277 -2.12189,-4.13145 -0.51014,-3.66211 2.95515,0 5.9103,0 8.86545,0 0,4.1565 0,8.31299 0,12.46949 z"
           style="font-style:normal;font-variant:normal;font-weight:600;font-stretch:normal;font-family:'Segoe UI';-inkscape-font-specification:'Segoe UI Semi-Bold';fill:#cccccc;stroke-width:0.9375" />
        <path
           inkscape:connector-curvature="0"
           id="path4553"
           d="m 330.95494,488.04651 c -4.91333,0 -9.82666,0 -14.73999,0 0,-8.75244 0,-17.50489 0,-26.25733 4.71802,0 9.43603,0 14.15405,0 0.0362,2.0499 0.64683,4.67433 -2.3425,3.69874 -2.48455,0 -4.96909,0 -7.45364,0 0,2.47803 0,4.95605 0,7.43408 3.00903,0 6.01807,0 9.0271,0 0.21953,2.33872 0.32332,4.56169 -2.67714,3.68042 -2.11665,0 -4.23331,0 -6.34996,0 0,2.58789 0,5.17578 0,7.76367 3.46069,0 6.92139,0 10.38208,0 0,1.22681 0,2.45361 0,3.68042 z"
           style="font-style:normal;font-variant:normal;font-weight:600;font-stretch:normal;font-family:'Segoe UI';-inkscape-font-specification:'Segoe UI Semi-Bold';fill:#cccccc;stroke-width:0.9375" />
      </g>
    </g>
  </g>
  <metadata
     id="metadata47">
    <rdf:RDF>
      <cc:Work>
        <dc:format>image/svg+xml</dc:format>
        <dc:type
           rdf:resource="http://purl.org/dc/dcmitype/StillImage" />
        <cc:license
           rdf:resource="http://creativecommons.org/licenses/publicdomain/" />
        <dc:publisher>
          <cc:Agent
             rdf:about="http://openclipart.org/">
            <dc:title>Openclipart</dc:title>
          </cc:Agent>
        </dc:publisher>
      </cc:Work>
      <cc:License
         rdf:about="http://creativecommons.org/licenses/publicdomain/">
        <cc:permits
           rdf:resource="http://creativecommons.org/ns#Reproduction" />
        <cc:permits
           rdf:resource="http://creativecommons.org/ns#Distribution" />
        <cc:permits
           rdf:resource="http://creativecommons.org/ns#DerivativeWorks" />
      </cc:License>
    </rdf:RDF>
  </metadata>
</svg>
