<svg xmlns="http://www.w3.org/2000/svg" version="1.1" viewBox="-5.0 -10.0 110.0 135.0">
 <path d="m50 31.25c-22.719 0-46.875 5.2031-46.875 14.844 0 3.4219 3.0312 6.2812 7.9688 8.5469h0.015625c7.9688 8.9844 19.422 14.109 31.453 14.109h14.875c12.062 0 23.547-5.1562 31.469-14.109 4.9375-2.2656 7.9688-5.1406 7.9688-8.5469 0-9.6406-24.156-14.844-46.875-14.844zm26.781 23.969c-7.2031 1.5781-16.359 2.5938-26.781 2.5938s-19.578-1.0156-26.781-2.5938c-0.65625-0.51562-1.3438-1.2812-1.3438-2.0938 0-3.2656 10.703-7.8125 28.125-7.8125s28.125 4.5469 28.125 7.8125c0 0.8125-0.6875 1.5781-1.3438 2.0938zm4.3594-1.0781c0.078125-0.35938 0.10938-0.70312 0.10938-1.0156 0-7.1094-16.094-10.938-31.25-10.938s-31.25 3.8281-31.25 10.938c0 0.3125 0.03125 0.65625 0.10938 1.0156-2.2344-0.625-4.2188-1.3125-5.8906-2.0469 0 0 0-0.015625-0.015625-0.015625-0.1875-0.14062-0.42188-0.23438-0.65625-0.26562h-0.015625c-3.875-1.7969-6.0312-3.7969-6.0312-5.7188 0-5.5469 17.969-11.719 43.75-11.719s43.75 6.1719 43.75 11.719c0 2.8281-4.6406 5.7969-12.609 8.0469z"/>
<text x="0.0" y="117.5" font-size="5.0" font-weight="bold" font-family="Arbeit Regular, Helvetica, Arial-Unicode, Arial, Sans-serif" fill="#000000">Created by wyasa design</text><text x="0.0" y="122.5" font-size="5.0" font-weight="bold" font-family="Arbeit Regular, Helvetica, Arial-Unicode, Arial, Sans-serif" fill="#000000">from Noun Project</text></svg>